<svg width="9" height="9" viewBox="0 0 9 9" fill="none" xmlns="http://www.w3.org/2000/svg">
<path d="M8.43739 0.568646C8.37957 0.510706 8.31089 0.464739 8.23528 0.433375C8.15968 0.402012 8.07862 0.385868 7.99677 0.385868C7.91491 0.385868 7.83386 0.402012 7.75825 0.433375C7.68265 0.464739 7.61397 0.510706 7.55614 0.568646L4.4999 3.61865L1.44365 0.562395C1.38578 0.504532 1.31709 0.458632 1.24149 0.427316C1.16588 0.396001 1.08485 0.379883 1.00302 0.379883C0.921189 0.379883 0.840159 0.396001 0.764556 0.427316C0.688953 0.458632 0.620259 0.504532 0.562395 0.562395C0.504532 0.620259 0.458632 0.688953 0.427316 0.764556C0.396001 0.840159 0.379883 0.921189 0.379883 1.00302C0.379883 1.08485 0.396001 1.16588 0.427316 1.24149C0.458632 1.31709 0.504532 1.38578 0.562395 1.44365L3.61865 4.4999L0.562395 7.55614C0.504532 7.61401 0.458632 7.6827 0.427316 7.75831C0.396001 7.83391 0.379883 7.91494 0.379883 7.99677C0.379883 8.0786 0.396001 8.15963 0.427316 8.23523C0.458632 8.31084 0.504532 8.37953 0.562395 8.43739C0.620259 8.49526 0.688953 8.54116 0.764556 8.57247C0.840159 8.60379 0.921189 8.61991 1.00302 8.61991C1.08485 8.61991 1.16588 8.60379 1.24149 8.57247C1.31709 8.54116 1.38578 8.49526 1.44365 8.43739L4.4999 5.38114L7.55614 8.43739C7.61401 8.49526 7.6827 8.54116 7.75831 8.57247C7.83391 8.60379 7.91494 8.61991 7.99677 8.61991C8.0786 8.61991 8.15963 8.60379 8.23523 8.57247C8.31084 8.54116 8.37953 8.49526 8.43739 8.43739C8.49526 8.37953 8.54116 8.31084 8.57247 8.23523C8.60379 8.15963 8.61991 8.0786 8.61991 7.99677C8.61991 7.91494 8.60379 7.83391 8.57247 7.75831C8.54116 7.6827 8.49526 7.61401 8.43739 7.55614L5.38114 4.4999L8.43739 1.44365C8.67489 1.20615 8.67489 0.806146 8.43739 0.568646Z" fill="#7D7878"/>
</svg>
