<svg width="17" height="18" viewBox="0 0 17 18" fill="none" xmlns="http://www.w3.org/2000/svg">
<path id="Vector" d="M9.46136 1.38057C9.3362 1.0548 9.05164 0.843994 8.73705 0.843994C8.42247 0.843994 8.13791 1.0548 8.01275 1.38057L6.17886 6.15388L1.55939 6.63413C1.24482 6.66683 0.977808 6.90804 0.880614 7.24731C0.78342 7.58658 0.874757 7.95858 1.1128 8.19299L4.5944 11.6213L3.57587 16.6868C3.50613 17.0336 3.62578 17.3941 3.88026 17.6038C4.13475 17.8135 4.47534 17.8323 4.74676 17.6516L8.73705 14.9958L12.7274 17.6516C12.9988 17.8323 13.3394 17.8135 13.5938 17.6038C13.8483 17.3941 13.968 17.0336 13.8982 16.6868L12.8797 11.6213L16.3613 8.19299C16.5994 7.95858 16.6907 7.58658 16.5935 7.24731C16.4963 6.90804 16.2293 6.66683 15.9147 6.63413L11.2952 6.15388L9.46136 1.38057Z" fill="#F69133"/>
</svg>
